# xmcd
#
# Track frame offsets:
#	150
#	20604
#	34832
#	49076
#	72211
#	87825
#	105435
#	118584
#	137841
#	158333
#	174760
#	188379
#	216106
#	229265
#
# Disc length: 3341 seconds
#
# Revision: 0
# Processed by: cddbd v1.5.1PL2 Copyright (c) Steve Scherf et al.
# Submitted via: audiograbber 1.81.02
#
DISCID=aa0d0b0e
DTITLE=Cranberries - No Need To Argue
DYEAR=1994
DGENRE=Rock
TTITLE0=Ode To My Family
TTITLE1=I Can't Be With You
TTITLE2=Twenty One
TTITLE3=Zombie
TTITLE4=Empty
TTITLE5=Everything T Said
TTITLE6=The Icicle Melts
TTITLE7=Disappointment
TTITLE8=Ridiculous Thoughts
TTITLE9=Dreaming My Dream
TTITLE10=Yeat's Grave
TTITLE11=Daffodil Lament
TTITLE12=No Need To Argue
TTITLE13=So Cold In Ireland
EXTD=
EXTT0=
EXTT1=
EXTT2=
EXTT3=
EXTT4=
EXTT5=
EXTT6=
EXTT7=
EXTT8=
EXTT9=
EXTT10=
EXTT11=
EXTT12=
EXTT13=
PLAYORDER=
